<svg width="25" height="24" viewBox="0 0 25 24" fill="none" xmlns="http://www.w3.org/2000/svg">
<g id="Frame" clip-path="url(#clip0_1_230)">
<path id="Vector" d="M12.83 15C14.4869 15 15.83 13.6569 15.83 12C15.83 10.3431 14.4869 9 12.83 9C11.1731 9 9.83002 10.3431 9.83002 12C9.83002 13.6569 11.1731 15 12.83 15Z" stroke="#3A6EA5" stroke-width="2" stroke-linecap="round" stroke-linejoin="round"/>
<path id="Vector_2" d="M20.23 15C20.0969 15.3016 20.0572 15.6362 20.116 15.9606C20.1748 16.285 20.3295 16.5843 20.56 16.82L20.62 16.88C20.806 17.0657 20.9535 17.2863 21.0541 17.5291C21.1548 17.7719 21.2066 18.0322 21.2066 18.295C21.2066 18.5578 21.1548 18.8181 21.0541 19.0609C20.9535 19.3037 20.806 19.5243 20.62 19.71C20.4343 19.896 20.2137 20.0435 19.9709 20.1441C19.7281 20.2448 19.4678 20.2966 19.205 20.2966C18.9422 20.2966 18.6819 20.2448 18.4391 20.1441C18.1963 20.0435 17.9757 19.896 17.79 19.71L17.73 19.65C17.4943 19.4195 17.195 19.2648 16.8706 19.206C16.5462 19.1472 16.2116 19.1869 15.91 19.32C15.6142 19.4468 15.362 19.6572 15.1843 19.9255C15.0066 20.1938 14.9113 20.5082 14.91 20.83V21C14.91 21.5304 14.6993 22.0391 14.3242 22.4142C13.9491 22.7893 13.4404 23 12.91 23C12.3796 23 11.8709 22.7893 11.4958 22.4142C11.1207 22.0391 10.91 21.5304 10.91 21V20.91C10.9023 20.579 10.7951 20.258 10.6025 19.9887C10.4099 19.7194 10.1408 19.5143 9.83002 19.4C9.5284 19.2669 9.19383 19.2272 8.86943 19.286C8.54504 19.3448 8.2457 19.4995 8.01002 19.73L7.95002 19.79C7.76427 19.976 7.5437 20.1235 7.3009 20.2241C7.0581 20.3248 6.79785 20.3766 6.53502 20.3766C6.27219 20.3766 6.01194 20.3248 5.76914 20.2241C5.52634 20.1235 5.30577 19.976 5.12002 19.79C4.93407 19.6043 4.78655 19.3837 4.6859 19.1409C4.58525 18.8981 4.53345 18.6378 4.53345 18.375C4.53345 18.1122 4.58525 17.8519 4.6859 17.6091C4.78655 17.3663 4.93407 17.1457 5.12002 16.96L5.18002 16.9C5.41056 16.6643 5.56521 16.365 5.62402 16.0406C5.68284 15.7162 5.64314 15.3816 5.51002 15.08C5.38326 14.7842 5.17278 14.532 4.90449 14.3543C4.6362 14.1766 4.32181 14.0813 4.00002 14.08H3.83002C3.29959 14.08 2.79088 13.8693 2.41581 13.4942C2.04073 13.1191 1.83002 12.6104 1.83002 12.08C1.83002 11.5496 2.04073 11.0409 2.41581 10.6658C2.79088 10.2907 3.29959 10.08 3.83002 10.08H3.92002C4.25101 10.0723 4.57202 9.96512 4.84132 9.77251C5.11061 9.5799 5.31574 9.31074 5.43002 9C5.56314 8.69838 5.60284 8.36381 5.54402 8.03941C5.48521 7.71502 5.33056 7.41568 5.10002 7.18L5.04002 7.12C4.85407 6.93425 4.70655 6.71368 4.6059 6.47088C4.50525 6.22808 4.45345 5.96783 4.45345 5.705C4.45345 5.44217 4.50525 5.18192 4.6059 4.93912C4.70655 4.69632 4.85407 4.47575 5.04002 4.29C5.22577 4.10405 5.44634 3.95653 5.68914 3.85588C5.93194 3.75523 6.19219 3.70343 6.45502 3.70343C6.71785 3.70343 6.9781 3.75523 7.2209 3.85588C7.4637 3.95653 7.68427 4.10405 7.87002 4.29L7.93002 4.35C8.1657 4.58054 8.46504 4.73519 8.78943 4.794C9.11383 4.85282 9.4484 4.81312 9.75002 4.68H9.83002C10.1258 4.55324 10.378 4.34276 10.5557 4.07447C10.7334 3.80618 10.8287 3.49179 10.83 3.17V3C10.83 2.46957 11.0407 1.96086 11.4158 1.58579C11.7909 1.21071 12.2996 1 12.83 1C13.3604 1 13.8691 1.21071 14.2442 1.58579C14.6193 1.96086 14.83 2.46957 14.83 3V3.09C14.8313 3.41179 14.9266 3.72618 15.1043 3.99447C15.282 4.26276 15.5342 4.47324 15.83 4.6C16.1316 4.73312 16.4662 4.77282 16.7906 4.714C17.115 4.65519 17.4143 4.50054 17.65 4.27L17.71 4.21C17.8957 4.02405 18.1163 3.87653 18.3591 3.77588C18.6019 3.67523 18.8622 3.62343 19.125 3.62343C19.3878 3.62343 19.6481 3.67523 19.8909 3.77588C20.1337 3.87653 20.3543 4.02405 20.54 4.21C20.726 4.39575 20.8735 4.61632 20.9741 4.85912C21.0748 5.10192 21.1266 5.36217 21.1266 5.625C21.1266 5.88783 21.0748 6.14808 20.9741 6.39088C20.8735 6.63368 20.726 6.85425 20.54 7.04L20.48 7.1C20.2495 7.33568 20.0948 7.63502 20.036 7.95941C19.9772 8.28381 20.0169 8.61838 20.15 8.92V9C20.2768 9.29577 20.4872 9.54802 20.7555 9.72569C21.0238 9.90337 21.3382 9.99872 21.66 10H21.83C22.3604 10 22.8691 10.2107 23.2442 10.5858C23.6193 10.9609 23.83 11.4696 23.83 12C23.83 12.5304 23.6193 13.0391 23.2442 13.4142C22.8691 13.7893 22.3604 14 21.83 14H21.74C21.4182 14.0013 21.1038 14.0966 20.8355 14.2743C20.5672 14.452 20.3568 14.7042 20.23 15Z" stroke="#3A6EA5" stroke-width="2" stroke-linecap="round" stroke-linejoin="round"/>
</g>
<defs>
<clipPath id="clip0_1_230">
<rect width="24" height="24" fill="white" transform="translate(0.830017)"/>
</clipPath>
</defs>
</svg>
