<svg width="25" height="24" viewBox="0 0 25 24" fill="none" xmlns="http://www.w3.org/2000/svg">
<g id="Frame" clip-path="url(#clip0_1_225)">
<path id="Vector" d="M18.16 8H19.16C20.2209 8 21.2383 8.42143 21.9884 9.17157C22.7386 9.92172 23.16 10.9391 23.16 12C23.16 13.0609 22.7386 14.0783 21.9884 14.8284C21.2383 15.5786 20.2209 16 19.16 16H18.16" stroke="#3A6EA5" stroke-width="2" stroke-linecap="round" stroke-linejoin="round"/>
<path id="Vector_2" d="M6.16 8H5.16C4.09913 8 3.08172 8.42143 2.33157 9.17157C1.58143 9.92172 1.16 10.9391 1.16 12C1.16 13.0609 1.58143 14.0783 2.33157 14.8284C3.08172 15.5786 4.09913 16 5.16 16H6.16" stroke="#3A6EA5" stroke-width="2" stroke-linecap="round" stroke-linejoin="round"/>
<path id="Vector_3" d="M8.16 12H16.16" stroke="#3A6EA5" stroke-width="2" stroke-linecap="round" stroke-linejoin="round"/>
</g>
<defs>
<clipPath id="clip0_1_225">
<rect width="24" height="24" fill="white" transform="translate(0.160004)"/>
</clipPath>
</defs>
</svg>
